<?xml version="1.0" encoding="UTF-8" ?>
<svg version="1.1" width="128" height="64" xmlns="http://www.w3.org/2000/svg" shape-rendering="crispEdges">
<rect x="13" y="0" width="1" height="1" fill="#51CFC0" />
<rect x="14" y="0" width="1" height="1" fill="#51CFC0" />
<rect x="15" y="0" width="1" height="1" fill="#51CFC0" />
<rect x="16" y="0" width="1" height="1" fill="#51CFC0" />
<rect x="17" y="0" width="1" height="1" fill="#51CFC0" />
<rect x="18" y="0" width="1" height="1" fill="#51CFC0" />
<rect x="19" y="0" width="1" height="1" fill="#51CFC0" />
<rect x="20" y="0" width="1" height="1" fill="#51CFC0" />
<rect x="21" y="0" width="1" height="1" fill="#51CFC0" />
<rect x="22" y="0" width="1" height="1" fill="#51CFC0" />
<rect x="23" y="0" width="1" height="1" fill="#51CFC0" />
<rect x="24" y="0" width="1" height="1" fill="#51CFC0" />
<rect x="25" y="0" width="1" height="1" fill="#51CFC0" />
<rect x="26" y="0" width="1" height="1" fill="#51CFC0" />
<rect x="27" y="0" width="1" height="1" fill="#51CFC0" />
<rect x="28" y="0" width="1" height="1" fill="#51CFC0" />
<rect x="29" y="0" width="1" height="1" fill="#51CFC0" />
<rect x="30" y="0" width="1" height="1" fill="#51CFC0" />
<rect x="31" y="0" width="1" height="1" fill="#51CFC0" />
<rect x="32" y="0" width="1" height="1" fill="#51CFC0" />
<rect x="33" y="0" width="1" height="1" fill="#51CFC0" />
<rect x="34" y="0" width="1" height="1" fill="#51CFC0" />
<rect x="35" y="0" width="1" height="1" fill="#51CFC0" />
<rect x="36" y="0" width="1" height="1" fill="#51CFC0" />
<rect x="37" y="0" width="1" height="1" fill="#51CFC0" />
<rect x="38" y="0" width="1" height="1" fill="#51CFC0" />
<rect x="39" y="0" width="1" height="1" fill="#51CFC0" />
<rect x="40" y="0" width="1" height="1" fill="#51CFC0" />
<rect x="41" y="0" width="1" height="1" fill="#51CFC0" />
<rect x="42" y="0" width="1" height="1" fill="#51CFC0" />
<rect x="43" y="0" width="1" height="1" fill="#51CFC0" />
<rect x="44" y="0" width="1" height="1" fill="#51CFC0" />
<rect x="45" y="0" width="1" height="1" fill="#51CFC0" />
<rect x="46" y="0" width="1" height="1" fill="#51CFC0" />
<rect x="47" y="0" width="1" height="1" fill="#51CFC0" />
<rect x="48" y="0" width="1" height="1" fill="#51CFC0" />
<rect x="49" y="0" width="1" height="1" fill="#51CFC0" />
<rect x="50" y="0" width="1" height="1" fill="#51CFC0" />
<rect x="51" y="0" width="1" height="1" fill="#51CFC0" />
<rect x="52" y="0" width="1" height="1" fill="#51CFC0" />
<rect x="53" y="0" width="1" height="1" fill="#51CFC0" />
<rect x="54" y="0" width="1" height="1" fill="#51CFC0" />
<rect x="55" y="0" width="1" height="1" fill="#51CFC0" />
<rect x="56" y="0" width="1" height="1" fill="#51CFC0" />
<rect x="57" y="0" width="1" height="1" fill="#51CFC0" />
<rect x="58" y="0" width="1" height="1" fill="#51CFC0" />
<rect x="59" y="0" width="1" height="1" fill="#51CFC0" />
<rect x="60" y="0" width="1" height="1" fill="#51CFC0" />
<rect x="61" y="0" width="1" height="1" fill="#51CFC0" />
<rect x="62" y="0" width="1" height="1" fill="#51CFC0" />
<rect x="63" y="0" width="1" height="1" fill="#51CFC0" />
<rect x="64" y="0" width="1" height="1" fill="#51CFC0" />
<rect x="65" y="0" width="1" height="1" fill="#51CFC0" />
<rect x="66" y="0" width="1" height="1" fill="#51CFC0" />
<rect x="67" y="0" width="1" height="1" fill="#51CFC0" />
<rect x="68" y="0" width="1" height="1" fill="#51CFC0" />
<rect x="69" y="0" width="1" height="1" fill="#51CFC0" />
<rect x="70" y="0" width="1" height="1" fill="#51CFC0" />
<rect x="71" y="0" width="1" height="1" fill="#51CFC0" />
<rect x="72" y="0" width="1" height="1" fill="#51CFC0" />
<rect x="73" y="0" width="1" height="1" fill="#51CFC0" />
<rect x="74" y="0" width="1" height="1" fill="#51CFC0" />
<rect x="75" y="0" width="1" height="1" fill="#51CFC0" />
<rect x="76" y="0" width="1" height="1" fill="#51CFC0" />
<rect x="77" y="0" width="1" height="1" fill="#51CFC0" />
<rect x="78" y="0" width="1" height="1" fill="#51CFC0" />
<rect x="79" y="0" width="1" height="1" fill="#51CFC0" />
<rect x="80" y="0" width="1" height="1" fill="#51CFC0" />
<rect x="81" y="0" width="1" height="1" fill="#51CFC0" />
<rect x="82" y="0" width="1" height="1" fill="#51CFC0" />
<rect x="83" y="0" width="1" height="1" fill="#51CFC0" />
<rect x="84" y="0" width="1" height="1" fill="#51CFC0" />
<rect x="85" y="0" width="1" height="1" fill="#51CFC0" />
<rect x="86" y="0" width="1" height="1" fill="#51CFC0" />
<rect x="87" y="0" width="1" height="1" fill="#51CFC0" />
<rect x="88" y="0" width="1" height="1" fill="#51CFC0" />
<rect x="89" y="0" width="1" height="1" fill="#51CFC0" />
<rect x="90" y="0" width="1" height="1" fill="#51CFC0" />
<rect x="91" y="0" width="1" height="1" fill="#51CFC0" />
<rect x="92" y="0" width="1" height="1" fill="#51CFC0" />
<rect x="93" y="0" width="1" height="1" fill="#51CFC0" />
<rect x="94" y="0" width="1" height="1" fill="#51CFC0" />
<rect x="95" y="0" width="1" height="1" fill="#51CFC0" />
<rect x="96" y="0" width="1" height="1" fill="#51CFC0" />
<rect x="97" y="0" width="1" height="1" fill="#51CFC0" />
<rect x="98" y="0" width="1" height="1" fill="#51CFC0" />
<rect x="99" y="0" width="1" height="1" fill="#51CFC0" />
<rect x="100" y="0" width="1" height="1" fill="#51CFC0" />
<rect x="101" y="0" width="1" height="1" fill="#51CFC0" />
<rect x="102" y="0" width="1" height="1" fill="#51CFC0" />
<rect x="103" y="0" width="1" height="1" fill="#51CFC0" />
<rect x="104" y="0" width="1" height="1" fill="#51CFC0" />
<rect x="105" y="0" width="1" height="1" fill="#51CFC0" />
<rect x="106" y="0" width="1" height="1" fill="#51CFC0" />
<rect x="107" y="0" width="1" height="1" fill="#51CFC0" />
<rect x="108" y="0" width="1" height="1" fill="#51CFC0" />
<rect x="109" y="0" width="1" height="1" fill="#51CFC0" />
<rect x="110" y="0" width="1" height="1" fill="#51CFC0" />
<rect x="111" y="0" width="1" height="1" fill="#51CFC0" />
<rect x="112" y="0" width="1" height="1" fill="#51CFC0" />
<rect x="113" y="0" width="1" height="1" fill="#51CFC0" />
<rect x="114" y="0" width="1" height="1" fill="#51CFC0" />
<rect x="10" y="1" width="1" height="1" fill="#51CFC0" />
<rect x="11" y="1" width="1" height="1" fill="#51CFC0" />
<rect x="12" y="1" width="1" height="1" fill="#51CFC0" />
<rect x="115" y="1" width="1" height="1" fill="#51CFC0" />
<rect x="116" y="1" width="1" height="1" fill="#51CFC0" />
<rect x="117" y="1" width="1" height="1" fill="#51CFC0" />
<rect x="8" y="2" width="1" height="1" fill="#51CFC0" />
<rect x="9" y="2" width="1" height="1" fill="#51CFC0" />
<rect x="118" y="2" width="1" height="1" fill="#51CFC0" />
<rect x="119" y="2" width="1" height="1" fill="#51CFC0" />
<rect x="7" y="3" width="1" height="1" fill="#51CFC0" />
<rect x="120" y="3" width="1" height="1" fill="#51CFC0" />
<rect x="6" y="4" width="1" height="1" fill="#51CFC0" />
<rect x="121" y="4" width="1" height="1" fill="#51CFC0" />
<rect x="5" y="5" width="1" height="1" fill="#51CFC0" />
<rect x="122" y="5" width="1" height="1" fill="#51CFC0" />
<rect x="4" y="6" width="1" height="1" fill="#51CFC0" />
<rect x="123" y="6" width="1" height="1" fill="#51CFC0" />
<rect x="3" y="7" width="1" height="1" fill="#51CFC0" />
<rect x="124" y="7" width="1" height="1" fill="#51CFC0" />
<rect x="2" y="8" width="1" height="1" fill="#51CFC0" />
<rect x="125" y="8" width="1" height="1" fill="#51CFC0" />
<rect x="2" y="9" width="1" height="1" fill="#51CFC0" />
<rect x="125" y="9" width="1" height="1" fill="#51CFC0" />
<rect x="1" y="10" width="1" height="1" fill="#51CFC0" />
<rect x="126" y="10" width="1" height="1" fill="#51CFC0" />
<rect x="1" y="11" width="1" height="1" fill="#51CFC0" />
<rect x="126" y="11" width="1" height="1" fill="#51CFC0" />
<rect x="1" y="12" width="1" height="1" fill="#51CFC0" />
<rect x="126" y="12" width="1" height="1" fill="#51CFC0" />
<rect x="0" y="13" width="1" height="1" fill="#51CFC0" />
<rect x="127" y="13" width="1" height="1" fill="#51CFC0" />
<rect x="0" y="14" width="1" height="1" fill="#51CFC0" />
<rect x="127" y="14" width="1" height="1" fill="#51CFC0" />
<rect x="0" y="15" width="1" height="1" fill="#51CFC0" />
<rect x="127" y="15" width="1" height="1" fill="#51CFC0" />
<rect x="0" y="16" width="1" height="1" fill="#51CFC0" />
<rect x="127" y="16" width="1" height="1" fill="#51CFC0" />
<rect x="0" y="17" width="1" height="1" fill="#51CFC0" />
<rect x="127" y="17" width="1" height="1" fill="#51CFC0" />
<rect x="0" y="18" width="1" height="1" fill="#51CFC0" />
<rect x="127" y="18" width="1" height="1" fill="#51CFC0" />
<rect x="0" y="19" width="1" height="1" fill="#51CFC0" />
<rect x="127" y="19" width="1" height="1" fill="#51CFC0" />
<rect x="0" y="20" width="1" height="1" fill="#51CFC0" />
<rect x="127" y="20" width="1" height="1" fill="#51CFC0" />
<rect x="0" y="21" width="1" height="1" fill="#51CFC0" />
<rect x="127" y="21" width="1" height="1" fill="#51CFC0" />
<rect x="0" y="22" width="1" height="1" fill="#51CFC0" />
<rect x="127" y="22" width="1" height="1" fill="#51CFC0" />
<rect x="0" y="23" width="1" height="1" fill="#51CFC0" />
<rect x="127" y="23" width="1" height="1" fill="#51CFC0" />
<rect x="0" y="24" width="1" height="1" fill="#51CFC0" />
<rect x="127" y="24" width="1" height="1" fill="#51CFC0" />
<rect x="0" y="25" width="1" height="1" fill="#51CFC0" />
<rect x="127" y="25" width="1" height="1" fill="#51CFC0" />
<rect x="0" y="26" width="1" height="1" fill="#51CFC0" />
<rect x="127" y="26" width="1" height="1" fill="#51CFC0" />
<rect x="0" y="27" width="1" height="1" fill="#51CFC0" />
<rect x="127" y="27" width="1" height="1" fill="#51CFC0" />
<rect x="0" y="28" width="1" height="1" fill="#51CFC0" />
<rect x="127" y="28" width="1" height="1" fill="#51CFC0" />
<rect x="0" y="29" width="1" height="1" fill="#51CFC0" />
<rect x="127" y="29" width="1" height="1" fill="#51CFC0" />
<rect x="0" y="30" width="1" height="1" fill="#51CFC0" />
<rect x="127" y="30" width="1" height="1" fill="#51CFC0" />
<rect x="0" y="31" width="1" height="1" fill="#51CFC0" />
<rect x="127" y="31" width="1" height="1" fill="#51CFC0" />
<rect x="0" y="32" width="1" height="1" fill="#51CFC0" />
<rect x="127" y="32" width="1" height="1" fill="#51CFC0" />
<rect x="0" y="33" width="1" height="1" fill="#51CFC0" />
<rect x="127" y="33" width="1" height="1" fill="#51CFC0" />
<rect x="0" y="34" width="1" height="1" fill="#51CFC0" />
<rect x="127" y="34" width="1" height="1" fill="#51CFC0" />
<rect x="0" y="35" width="1" height="1" fill="#51CFC0" />
<rect x="127" y="35" width="1" height="1" fill="#51CFC0" />
<rect x="0" y="36" width="1" height="1" fill="#51CFC0" />
<rect x="127" y="36" width="1" height="1" fill="#51CFC0" />
<rect x="0" y="37" width="1" height="1" fill="#51CFC0" />
<rect x="127" y="37" width="1" height="1" fill="#51CFC0" />
<rect x="0" y="38" width="1" height="1" fill="#51CFC0" />
<rect x="127" y="38" width="1" height="1" fill="#51CFC0" />
<rect x="0" y="39" width="1" height="1" fill="#51CFC0" />
<rect x="127" y="39" width="1" height="1" fill="#51CFC0" />
<rect x="0" y="40" width="1" height="1" fill="#51CFC0" />
<rect x="127" y="40" width="1" height="1" fill="#51CFC0" />
<rect x="0" y="41" width="1" height="1" fill="#51CFC0" />
<rect x="127" y="41" width="1" height="1" fill="#51CFC0" />
<rect x="0" y="42" width="1" height="1" fill="#51CFC0" />
<rect x="127" y="42" width="1" height="1" fill="#51CFC0" />
<rect x="0" y="43" width="1" height="1" fill="#51CFC0" />
<rect x="127" y="43" width="1" height="1" fill="#51CFC0" />
<rect x="0" y="44" width="1" height="1" fill="#51CFC0" />
<rect x="127" y="44" width="1" height="1" fill="#51CFC0" />
<rect x="0" y="45" width="1" height="1" fill="#51CFC0" />
<rect x="127" y="45" width="1" height="1" fill="#51CFC0" />
<rect x="0" y="46" width="1" height="1" fill="#51CFC0" />
<rect x="127" y="46" width="1" height="1" fill="#51CFC0" />
<rect x="0" y="47" width="1" height="1" fill="#51CFC0" />
<rect x="127" y="47" width="1" height="1" fill="#51CFC0" />
<rect x="0" y="48" width="1" height="1" fill="#51CFC0" />
<rect x="127" y="48" width="1" height="1" fill="#51CFC0" />
<rect x="0" y="49" width="1" height="1" fill="#51CFC0" />
<rect x="127" y="49" width="1" height="1" fill="#51CFC0" />
<rect x="0" y="50" width="1" height="1" fill="#51CFC0" />
<rect x="127" y="50" width="1" height="1" fill="#51CFC0" />
<rect x="1" y="51" width="1" height="1" fill="#51CFC0" />
<rect x="126" y="51" width="1" height="1" fill="#51CFC0" />
<rect x="1" y="52" width="1" height="1" fill="#51CFC0" />
<rect x="126" y="52" width="1" height="1" fill="#51CFC0" />
<rect x="1" y="53" width="1" height="1" fill="#51CFC0" />
<rect x="126" y="53" width="1" height="1" fill="#51CFC0" />
<rect x="2" y="54" width="1" height="1" fill="#51CFC0" />
<rect x="125" y="54" width="1" height="1" fill="#51CFC0" />
<rect x="2" y="55" width="1" height="1" fill="#51CFC0" />
<rect x="125" y="55" width="1" height="1" fill="#51CFC0" />
<rect x="3" y="56" width="1" height="1" fill="#51CFC0" />
<rect x="124" y="56" width="1" height="1" fill="#51CFC0" />
<rect x="4" y="57" width="1" height="1" fill="#51CFC0" />
<rect x="123" y="57" width="1" height="1" fill="#51CFC0" />
<rect x="5" y="58" width="1" height="1" fill="#51CFC0" />
<rect x="122" y="58" width="1" height="1" fill="#51CFC0" />
<rect x="6" y="59" width="1" height="1" fill="#51CFC0" />
<rect x="121" y="59" width="1" height="1" fill="#51CFC0" />
<rect x="7" y="60" width="1" height="1" fill="#51CFC0" />
<rect x="120" y="60" width="1" height="1" fill="#51CFC0" />
<rect x="8" y="61" width="1" height="1" fill="#51CFC0" />
<rect x="9" y="61" width="1" height="1" fill="#51CFC0" />
<rect x="118" y="61" width="1" height="1" fill="#51CFC0" />
<rect x="119" y="61" width="1" height="1" fill="#51CFC0" />
<rect x="10" y="62" width="1" height="1" fill="#51CFC0" />
<rect x="11" y="62" width="1" height="1" fill="#51CFC0" />
<rect x="12" y="62" width="1" height="1" fill="#51CFC0" />
<rect x="115" y="62" width="1" height="1" fill="#51CFC0" />
<rect x="116" y="62" width="1" height="1" fill="#51CFC0" />
<rect x="117" y="62" width="1" height="1" fill="#51CFC0" />
<rect x="13" y="63" width="1" height="1" fill="#51CFC0" />
<rect x="14" y="63" width="1" height="1" fill="#51CFC0" />
<rect x="15" y="63" width="1" height="1" fill="#51CFC0" />
<rect x="16" y="63" width="1" height="1" fill="#51CFC0" />
<rect x="17" y="63" width="1" height="1" fill="#51CFC0" />
<rect x="18" y="63" width="1" height="1" fill="#51CFC0" />
<rect x="19" y="63" width="1" height="1" fill="#51CFC0" />
<rect x="20" y="63" width="1" height="1" fill="#51CFC0" />
<rect x="21" y="63" width="1" height="1" fill="#51CFC0" />
<rect x="22" y="63" width="1" height="1" fill="#51CFC0" />
<rect x="23" y="63" width="1" height="1" fill="#51CFC0" />
<rect x="24" y="63" width="1" height="1" fill="#51CFC0" />
<rect x="25" y="63" width="1" height="1" fill="#51CFC0" />
<rect x="26" y="63" width="1" height="1" fill="#51CFC0" />
<rect x="27" y="63" width="1" height="1" fill="#51CFC0" />
<rect x="28" y="63" width="1" height="1" fill="#51CFC0" />
<rect x="29" y="63" width="1" height="1" fill="#51CFC0" />
<rect x="30" y="63" width="1" height="1" fill="#51CFC0" />
<rect x="31" y="63" width="1" height="1" fill="#51CFC0" />
<rect x="32" y="63" width="1" height="1" fill="#51CFC0" />
<rect x="33" y="63" width="1" height="1" fill="#51CFC0" />
<rect x="34" y="63" width="1" height="1" fill="#51CFC0" />
<rect x="35" y="63" width="1" height="1" fill="#51CFC0" />
<rect x="36" y="63" width="1" height="1" fill="#51CFC0" />
<rect x="37" y="63" width="1" height="1" fill="#51CFC0" />
<rect x="38" y="63" width="1" height="1" fill="#51CFC0" />
<rect x="39" y="63" width="1" height="1" fill="#51CFC0" />
<rect x="40" y="63" width="1" height="1" fill="#51CFC0" />
<rect x="41" y="63" width="1" height="1" fill="#51CFC0" />
<rect x="42" y="63" width="1" height="1" fill="#51CFC0" />
<rect x="43" y="63" width="1" height="1" fill="#51CFC0" />
<rect x="44" y="63" width="1" height="1" fill="#51CFC0" />
<rect x="45" y="63" width="1" height="1" fill="#51CFC0" />
<rect x="46" y="63" width="1" height="1" fill="#51CFC0" />
<rect x="47" y="63" width="1" height="1" fill="#51CFC0" />
<rect x="48" y="63" width="1" height="1" fill="#51CFC0" />
<rect x="49" y="63" width="1" height="1" fill="#51CFC0" />
<rect x="50" y="63" width="1" height="1" fill="#51CFC0" />
<rect x="51" y="63" width="1" height="1" fill="#51CFC0" />
<rect x="52" y="63" width="1" height="1" fill="#51CFC0" />
<rect x="53" y="63" width="1" height="1" fill="#51CFC0" />
<rect x="54" y="63" width="1" height="1" fill="#51CFC0" />
<rect x="55" y="63" width="1" height="1" fill="#51CFC0" />
<rect x="56" y="63" width="1" height="1" fill="#51CFC0" />
<rect x="57" y="63" width="1" height="1" fill="#51CFC0" />
<rect x="58" y="63" width="1" height="1" fill="#51CFC0" />
<rect x="59" y="63" width="1" height="1" fill="#51CFC0" />
<rect x="60" y="63" width="1" height="1" fill="#51CFC0" />
<rect x="61" y="63" width="1" height="1" fill="#51CFC0" />
<rect x="62" y="63" width="1" height="1" fill="#51CFC0" />
<rect x="63" y="63" width="1" height="1" fill="#51CFC0" />
<rect x="64" y="63" width="1" height="1" fill="#51CFC0" />
<rect x="65" y="63" width="1" height="1" fill="#51CFC0" />
<rect x="66" y="63" width="1" height="1" fill="#51CFC0" />
<rect x="67" y="63" width="1" height="1" fill="#51CFC0" />
<rect x="68" y="63" width="1" height="1" fill="#51CFC0" />
<rect x="69" y="63" width="1" height="1" fill="#51CFC0" />
<rect x="70" y="63" width="1" height="1" fill="#51CFC0" />
<rect x="71" y="63" width="1" height="1" fill="#51CFC0" />
<rect x="72" y="63" width="1" height="1" fill="#51CFC0" />
<rect x="73" y="63" width="1" height="1" fill="#51CFC0" />
<rect x="74" y="63" width="1" height="1" fill="#51CFC0" />
<rect x="75" y="63" width="1" height="1" fill="#51CFC0" />
<rect x="76" y="63" width="1" height="1" fill="#51CFC0" />
<rect x="77" y="63" width="1" height="1" fill="#51CFC0" />
<rect x="78" y="63" width="1" height="1" fill="#51CFC0" />
<rect x="79" y="63" width="1" height="1" fill="#51CFC0" />
<rect x="80" y="63" width="1" height="1" fill="#51CFC0" />
<rect x="81" y="63" width="1" height="1" fill="#51CFC0" />
<rect x="82" y="63" width="1" height="1" fill="#51CFC0" />
<rect x="83" y="63" width="1" height="1" fill="#51CFC0" />
<rect x="84" y="63" width="1" height="1" fill="#51CFC0" />
<rect x="85" y="63" width="1" height="1" fill="#51CFC0" />
<rect x="86" y="63" width="1" height="1" fill="#51CFC0" />
<rect x="87" y="63" width="1" height="1" fill="#51CFC0" />
<rect x="88" y="63" width="1" height="1" fill="#51CFC0" />
<rect x="89" y="63" width="1" height="1" fill="#51CFC0" />
<rect x="90" y="63" width="1" height="1" fill="#51CFC0" />
<rect x="91" y="63" width="1" height="1" fill="#51CFC0" />
<rect x="92" y="63" width="1" height="1" fill="#51CFC0" />
<rect x="93" y="63" width="1" height="1" fill="#51CFC0" />
<rect x="94" y="63" width="1" height="1" fill="#51CFC0" />
<rect x="95" y="63" width="1" height="1" fill="#51CFC0" />
<rect x="96" y="63" width="1" height="1" fill="#51CFC0" />
<rect x="97" y="63" width="1" height="1" fill="#51CFC0" />
<rect x="98" y="63" width="1" height="1" fill="#51CFC0" />
<rect x="99" y="63" width="1" height="1" fill="#51CFC0" />
<rect x="100" y="63" width="1" height="1" fill="#51CFC0" />
<rect x="101" y="63" width="1" height="1" fill="#51CFC0" />
<rect x="102" y="63" width="1" height="1" fill="#51CFC0" />
<rect x="103" y="63" width="1" height="1" fill="#51CFC0" />
<rect x="104" y="63" width="1" height="1" fill="#51CFC0" />
<rect x="105" y="63" width="1" height="1" fill="#51CFC0" />
<rect x="106" y="63" width="1" height="1" fill="#51CFC0" />
<rect x="107" y="63" width="1" height="1" fill="#51CFC0" />
<rect x="108" y="63" width="1" height="1" fill="#51CFC0" />
<rect x="109" y="63" width="1" height="1" fill="#51CFC0" />
<rect x="110" y="63" width="1" height="1" fill="#51CFC0" />
<rect x="111" y="63" width="1" height="1" fill="#51CFC0" />
<rect x="112" y="63" width="1" height="1" fill="#51CFC0" />
<rect x="113" y="63" width="1" height="1" fill="#51CFC0" />
<rect x="114" y="63" width="1" height="1" fill="#51CFC0" />
</svg>